<svg width="175" height="52" viewBox="0 0 175 52" fill="none" xmlns="http://www.w3.org/2000/svg">
<path d="M1.33984 14.5117C1.33984 12.8581 1.80208 11.4714 2.72656 10.3516C3.65104 9.23177 4.86198 8.67188 6.35938 8.67188C7.86979 8.67188 9.08073 9.23828 9.99219 10.3711C10.9167 11.4909 11.3789 12.8711 11.3789 14.5117C11.3789 16.1393 10.9167 17.5195 9.99219 18.6523C9.08073 19.7721 7.86979 20.332 6.35938 20.332C4.86198 20.332 3.65104 19.7721 2.72656 18.6523C1.80208 17.5326 1.33984 16.1523 1.33984 14.5117ZM2.39453 14.4922C2.39453 15.7682 2.74609 16.901 3.44922 17.8906C4.16536 18.8672 5.13542 19.3555 6.35938 19.3555C7.58333 19.3555 8.54688 18.8737 9.25 17.9102C9.96615 16.9336 10.3242 15.7943 10.3242 14.4922C10.3242 13.1771 9.96615 12.0443 9.25 11.0938C8.53385 10.1302 7.57031 9.64844 6.35938 9.64844C5.10938 9.64844 4.13281 10.1432 3.42969 11.1328C2.73958 12.1094 2.39453 13.2292 2.39453 14.4922ZM23.9875 9.00391H28.3625V9.92188H26.3703V15.4297C26.3703 16.6146 26.494 17.4609 26.7414 17.9688C27.1841 18.8932 28.0565 19.3555 29.3586 19.3555C30.7128 19.3555 31.5982 18.9453 32.0148 18.125C32.2753 17.6562 32.4055 16.8229 32.4055 15.625V9.92188H30.4133V9.00391H34.7883V9.92188H33.382V15.625C33.382 17.1615 33.1477 18.2552 32.6789 18.9062C32.4185 19.2708 32.0018 19.6029 31.4289 19.9023C30.856 20.1888 30.1724 20.332 29.3781 20.332C27.8807 20.332 26.774 19.8242 26.0578 18.8086C25.6151 18.1706 25.3937 17.0443 25.3937 15.4297V9.92188H23.9875V9.00391ZM47.7094 9.00391H57.0844L57.4164 13.6133L56.4789 13.7305L56.2055 9.92188H52.8852V19.082H55.2484V20H49.5453V19.082H51.9086V9.92188H48.5883L48.3148 13.7305L47.3773 13.6133L47.7094 9.00391ZM70.3961 14.5117C70.3961 12.8581 70.8583 11.4714 71.7828 10.3516C72.7073 9.23177 73.9182 8.67188 75.4156 8.67188C76.926 8.67188 78.137 9.23828 79.0484 10.3711C79.9729 11.4909 80.4352 12.8711 80.4352 14.5117C80.4352 16.1393 79.9729 17.5195 79.0484 18.6523C78.137 19.7721 76.926 20.332 75.4156 20.332C73.9182 20.332 72.7073 19.7721 71.7828 18.6523C70.8583 17.5326 70.3961 16.1523 70.3961 14.5117ZM71.4508 14.4922C71.4508 15.7682 71.8023 16.901 72.5055 17.8906C73.2216 18.8672 74.1917 19.3555 75.4156 19.3555C76.6396 19.3555 77.6031 18.8737 78.3063 17.9102C79.0224 16.9336 79.3805 15.7943 79.3805 14.4922C79.3805 13.1771 79.0224 12.0443 78.3063 11.0938C77.5901 10.1302 76.6266 9.64844 75.4156 9.64844C74.1656 9.64844 73.1891 10.1432 72.4859 11.1328C71.7958 12.1094 71.4508 13.2292 71.4508 14.4922ZM93.9812 9.00391H103.141L103.239 12.5195H102.36L102.126 9.92188H96.5398V13.7305H99.7039V12.3047H100.602V16.0547H99.7039V14.6484H96.5398V19.082H99.0789V20H93.9812V19.082H95.5633V9.92188H93.9812V9.00391ZM116.766 9.00391H126.141L126.473 13.6133L125.535 13.7305L125.262 9.92188H121.941V19.082H124.305V20H118.602V19.082H120.965V9.92188H117.645L117.371 13.7305L116.434 13.6133L116.766 9.00391ZM139.374 9.00391H143.28V9.92188H141.816V13.8672H147.128V9.92188H145.663V9.00391H149.589V9.92188H148.105V19.082H149.589V20H145.663V19.082H147.128V14.7852H141.816V19.082H143.28V20H139.374V19.082H140.839V9.92188H139.374V9.00391ZM162.745 9.00391H172.022L172.1 12.5977H171.202L171.006 9.92188H165.381V13.7305H168.545V12.3047H169.444V16.0547H168.545V14.6484H165.381V19.082H171.202L171.299 16.4062H172.198V20H162.745V19.082H164.405V9.92188H162.745V9.00391ZM9.52344 34.7891H10.4023C10.2852 35.2969 10.2266 35.7656 10.2266 36.1953C10.2266 36.7943 10.2852 37.569 10.4023 38.5195L9.52344 38.6758C9.41927 37.9076 9.21745 37.2956 8.91797 36.8398C8.39714 36.0456 7.57031 35.6484 6.4375 35.6484C5.5 35.6484 4.77083 35.8893 4.25 36.3711C3.74219 36.8529 3.48828 37.3802 3.48828 37.9531C3.48828 38.3698 3.58594 38.7214 3.78125 39.0078C3.98958 39.2943 4.27604 39.5091 4.64062 39.6523C5.01823 39.7826 5.32422 39.8737 5.55859 39.9258C5.79297 39.9648 6.09245 40.0039 6.45703 40.043C7.27734 40.1341 7.8763 40.2253 8.25391 40.3164C8.64453 40.3945 8.99609 40.5378 9.30859 40.7461C10.1159 41.293 10.5195 42.0482 10.5195 43.0117C10.5195 44.0664 10.1159 44.8867 9.30859 45.4727C8.5013 46.0456 7.57031 46.332 6.51562 46.332C5.44792 46.332 4.55599 46.0326 3.83984 45.4336C3.78776 45.3815 3.73568 45.3555 3.68359 45.3555C3.61849 45.3555 3.55339 45.4076 3.48828 45.5117C3.4362 45.668 3.3776 45.9609 3.3125 46.3906H2.43359C2.55078 45.8307 2.60938 45.2513 2.60938 44.6523C2.60938 44.3659 2.55078 43.6758 2.43359 42.582H3.3125C3.46875 43.3633 3.6901 43.9427 3.97656 44.3203C4.4974 45.0104 5.29818 45.3555 6.37891 45.3555C7.45964 45.3555 8.24089 45.1276 8.72266 44.6719C9.21745 44.2161 9.46484 43.6888 9.46484 43.0898C9.46484 42.7643 9.39974 42.4844 9.26953 42.25C9.13932 42.0026 8.98307 41.8138 8.80078 41.6836C8.63151 41.5404 8.40365 41.4232 8.11719 41.332C7.84375 41.2409 7.61589 41.1823 7.43359 41.1562C7.2513 41.1302 7.02344 41.1042 6.75 41.0781C6.30729 41.0391 5.94922 41 5.67578 40.9609C5.41536 40.9219 5.05078 40.8307 4.58203 40.6875C4.1263 40.5443 3.76172 40.375 3.48828 40.1797C3.21484 39.9844 2.96745 39.7044 2.74609 39.3398C2.53776 38.9622 2.43359 38.526 2.43359 38.0312C2.43359 37.1198 2.80469 36.332 3.54688 35.668C4.30208 35.0039 5.22656 34.6719 6.32031 34.6719C7.25781 34.6719 8.0651 34.9388 8.74219 35.4727C8.98958 35.6549 9.13932 35.7461 9.19141 35.7461C9.26953 35.7461 9.32161 35.7135 9.34766 35.6484C9.3737 35.5833 9.41927 35.3815 9.48438 35.043C9.51042 34.9388 9.52344 34.8542 9.52344 34.7891ZM25.7258 35.0039H29.925L34.0461 45.082H35.0422V46H31.0383V45.082H33.0305L31.9172 42.3672H26.8195L25.7258 45.082H27.718V46H23.7141V45.082H24.7492L28.5187 35.9219H25.7258V35.0039ZM31.5852 41.5078L29.3781 36.1562L27.1711 41.5078H31.5852ZM47.0844 35.0039H50.4242L55.5609 45.1797H55.9125V35.9219H53.725V35.0039H58.0805V35.9219H56.8109V46.2539H55.0727L49.8383 35.9219H49.5062V45.082H51.7133V46H47.0844V45.082H48.6078V35.9219H47.0844V35.0039ZM70.2203 35.0039H75.1031C76.0797 35.0039 76.8674 35.0951 77.4664 35.2773C78.0654 35.4596 78.6122 35.8568 79.107 36.4688C79.9143 37.4714 80.318 38.7474 80.318 40.2969C80.318 42.3151 79.7776 43.8385 78.6969 44.8672C77.9026 45.6224 76.6786 46 75.025 46H70.2203V45.082H71.7633V35.9219H70.2203V35.0039ZM75.1227 35.9219H72.7398V45.082H75.025C76.3531 45.082 77.3297 44.776 77.9547 44.1641C78.8271 43.2917 79.2633 42.0221 79.2633 40.3555C79.2633 39.0924 78.9573 38.0378 78.3453 37.1914C77.9677 36.6576 77.5445 36.3125 77.0758 36.1562C76.607 36 75.956 35.9219 75.1227 35.9219ZM117.195 35.0039H122.527C123.79 35.0039 124.728 35.2773 125.34 35.8242C125.952 36.3711 126.258 37.0417 126.258 37.8359C126.258 38.9167 125.743 39.724 124.715 40.2578C126.199 40.7005 126.941 41.612 126.941 42.9922C126.941 43.526 126.811 44.0143 126.551 44.457C126.303 44.8997 125.971 45.2318 125.555 45.4531C125.138 45.6745 124.721 45.8242 124.305 45.9023C123.888 45.9674 123.237 46 122.352 46H117.195V45.082H118.816V35.9219H117.195V35.0039ZM122.488 35.9219H119.793V39.8281H122.391C122.99 39.8281 123.497 39.7565 123.914 39.6133C124.331 39.457 124.624 39.2617 124.793 39.0273C124.962 38.793 125.079 38.5781 125.145 38.3828C125.21 38.1875 125.242 37.9922 125.242 37.7969C125.242 37.3672 125.125 37.0091 124.891 36.7227C124.669 36.4362 124.37 36.2474 123.992 36.1562C123.615 36.0521 123.322 35.987 123.113 35.9609C122.918 35.9349 122.71 35.9219 122.488 35.9219ZM122.234 40.7461H119.793V45.082H122.312C122.638 45.082 122.892 45.082 123.074 45.082C123.257 45.069 123.51 45.043 123.836 45.0039C124.174 44.9648 124.441 44.9062 124.637 44.8281C124.845 44.737 125.06 44.6198 125.281 44.4766C125.503 44.3203 125.665 44.1185 125.77 43.8711C125.874 43.6237 125.926 43.3307 125.926 42.9922C125.926 42.224 125.594 41.6576 124.93 41.293C124.266 40.9284 123.367 40.7461 122.234 40.7461ZM140.175 40.5117C140.175 38.8581 140.637 37.4714 141.562 36.3516C142.486 35.2318 143.697 34.6719 145.195 34.6719C146.705 34.6719 147.916 35.2383 148.827 36.3711C149.752 37.4909 150.214 38.8711 150.214 40.5117C150.214 42.1393 149.752 43.5195 148.827 44.6523C147.916 45.7721 146.705 46.332 145.195 46.332C143.697 46.332 142.486 45.7721 141.562 44.6523C140.637 43.5326 140.175 42.1523 140.175 40.5117ZM141.23 40.4922C141.23 41.7682 141.581 42.901 142.284 43.8906C143.001 44.8672 143.971 45.3555 145.195 45.3555C146.418 45.3555 147.382 44.8737 148.085 43.9102C148.801 42.9336 149.159 41.7943 149.159 40.4922C149.159 39.1771 148.801 38.0443 148.085 37.0938C147.369 36.1302 146.405 35.6484 145.195 35.6484C143.945 35.6484 142.968 36.1432 142.265 37.1328C141.575 38.1094 141.23 39.2292 141.23 40.4922ZM163.37 35.0039H167.159V35.9219H165.557L168.233 39.4961L170.967 35.9219H169.483V35.0039H173.057V35.9219H172.061L168.78 40.2188L172.413 45.082H173.428V46H169.483V45.082H171.241L168.233 40.9414L165.088 45.082H167.159V46H162.998V45.082H163.995L167.686 40.2188L164.405 35.9219H163.37V35.0039Z" fill="white"/>
<rect x="93.7256" y="35.2129" width="11.0043" height="9.03674" stroke="white"/>
<rect x="95.2471" y="36.7554" width="7.97269" height="5.96338" fill="white"/>
</svg>
