<?xml version="1.0"?>
<svg width="1024" height="1024" xmlns="http://www.w3.org/2000/svg" xmlns:svg="http://www.w3.org/2000/svg" class="svg-icon" version="1.1">

 <g class="layer">
  <title>Layer 1</title>
  <path d="m469.91,685.29l-161.6,-102.04c-25.72,-17.63 -102.2,-18.82 -132.11,11.08a17.07,17.07 0 0 0 24.13,24.13c17,-16.96 76.08,-15.7 89.22,-6.69l154.18,97.37l0,198.18c-27.85,4.64 -94.84,14.28 -170.66,14.28l-187.74,0a17.08,17.08 0 0 1 0,-34.13a17.07,17.07 0 1 0 0,-34.14l-17.06,0a17.08,17.08 0 0 1 0,-34.13a17.07,17.07 0 1 0 0,-34.13l-17.07,0a17.08,17.08 0 0 1 0,-34.14l17.07,0a17.07,17.07 0 1 0 0,-34.13a17.08,17.08 0 0 1 0,-34.13l204.8,0a17.07,17.07 0 1 0 0,-34.14l-204.8,0c-28.23,0 -51.2,22.98 -51.2,51.2c0,9.13 2.4,17.7 6.6,25.13a51.22,51.22 0 0 0 -23.67,43.14c0,18.09 9.45,34.05 23.67,43.14a51.22,51.22 0 0 0 17.07,68.27a50.86,50.86 0 0 0 -6.61,25.12c0,22.22 14.32,40.98 34.14,48.05l0,54.35a17.07,17.07 0 1 0 34.13,0l0,-51.2l170.67,0c24.04,0 47.02,-0.94 68.26,-2.33l0,53.53a17.07,17.07 0 1 0 34.14,0l0,-56.3c51.49,-4.97 86.44,-11.84 88.68,-12.3a17.07,17.07 0 0 0 13.72,-16.73l0,-221.87c0,-5.85 -3.01,-11.29 -7.96,-14.44m127.42,236.31l-51.2,0l0,-238.93l17.07,0a17.07,17.07 0 1 0 0,-34.14l-34.13,0a17.07,17.07 0 0 0 -17.07,17.07l0,273.07a17.07,17.07 0 0 0 17.07,17.06l68.26,0a17.07,17.07 0 1 0 0,-34.13m68.27,-477.87a17.07,17.07 0 0 0 -17.07,17.07l0,34.13a17.07,17.07 0 0 0 17.07,17.07l273.07,0a17.07,17.07 0 0 0 17.06,-17.07l0,-68.26a17.07,17.07 0 1 0 -34.13,0l0,51.2l-238.93,0l0,-17.07a17.07,17.07 0 0 0 -17.07,-17.07" fill="#04af4c" id="svg_1"/>
  <path d="m1024,665.6a17.07,17.07 0 0 0 -17.07,-17.07l-56.3,0c-4.97,-51.49 -11.84,-86.42 -12.3,-88.68a17.03,17.03 0 0 0 -16.73,-13.72l-221.87,0c-5.85,0 -11.29,3.01 -14.44,7.96l-102.04,161.6c-17.64,25.72 -18.84,102.2 11.08,132.11a17.07,17.07 0 0 0 24.13,-24.13c-16.96,-16.98 -15.72,-76.06 -6.69,-89.22l97.37,-154.18l198.16,0c4.66,27.85 14.3,94.84 14.3,170.66l0,187.74a17.08,17.08 0 0 1 -34.13,0a17.07,17.07 0 1 0 -34.14,0l0,17.06a17.08,17.08 0 0 1 -34.13,0a17.07,17.07 0 1 0 -34.13,0l0,17.07a17.08,17.08 0 0 1 -34.14,0l0,-17.07a17.07,17.07 0 1 0 -34.13,0a17.08,17.08 0 0 1 -34.13,0l0,-204.8a17.07,17.07 0 1 0 -34.14,0l0,204.8c0,28.23 22.98,51.2 51.2,51.2c9.12,0 17.7,-2.4 25.13,-6.6a51.2,51.2 0 0 0 43.14,23.67a51.2,51.2 0 0 0 43.14,-23.67a51.2,51.2 0 0 0 68.27,-17.07c7.43,4.2 16.01,6.61 25.12,6.61a51.08,51.08 0 0 0 48.05,-34.14l54.35,0a17.07,17.07 0 1 0 0,-34.13l-51.2,0l0,-170.67c0,-24.04 -0.94,-47.02 -2.33,-68.26l53.53,0a17.07,17.07 0 0 0 17.07,-17.07m-469.91,-326.89l161.6,102.04c11.5,7.88 33.16,12.49 56.25,12.49c28.55,0 59.33,-7.03 75.86,-23.57a17.07,17.07 0 0 0 -24.13,-24.13c-16.96,17 -76.06,15.72 -89.22,6.69l-154.18,-97.37l0,-198.18c27.85,-4.64 94.84,-14.28 170.66,-14.28l187.74,0a17.08,17.08 0 0 1 0,34.13a17.07,17.07 0 1 0 0,34.14l17.06,0a17.08,17.08 0 0 1 0,34.13a17.07,17.07 0 1 0 0,34.13l17.07,0a17.08,17.08 0 0 1 0,34.14l-17.07,0a17.07,17.07 0 1 0 0,34.13a17.08,17.08 0 0 1 0,34.13l-204.8,0a17.07,17.07 0 1 0 0,34.14l204.8,0c28.23,0 51.2,-22.98 51.2,-51.2a50.86,50.86 0 0 0 -6.6,-25.13a51.22,51.22 0 0 0 23.67,-43.14a51.2,51.2 0 0 0 -23.67,-43.14a51.2,51.2 0 0 0 -17.07,-68.27a50.86,50.86 0 0 0 6.61,-25.12a51.15,51.15 0 0 0 -34.14,-48.06l0,-54.34a17.07,17.07 0 1 0 -34.13,0l0,51.2l-170.67,0c-24.04,0 -47.02,0.94 -68.26,2.33l0,-53.53a17.07,17.07 0 1 0 -34.14,0l0,56.3c-51.49,4.97 -86.44,11.84 -88.68,12.29a17.08,17.08 0 0 0 -13.72,16.74l0,221.87c0,5.85 3.01,11.29 7.96,14.44m-42.09,-253.38a17.07,17.07 0 0 0 -17.07,-17.06l-68.26,0a17.07,17.07 0 1 0 0,34.13l51.2,0l0,238.93l-17.07,0a17.07,17.07 0 1 0 0,34.14l34.13,0a17.07,17.07 0 0 0 17.07,-17.07l0,-273.07m-153.6,494.94a17.07,17.07 0 0 0 17.07,-17.07l0,-34.13a17.07,17.07 0 0 0 -17.07,-17.07l-273.07,0a17.07,17.07 0 0 0 -17.06,17.07l0,68.26a17.07,17.07 0 1 0 34.13,0l0,-51.2l238.93,0l0,17.07a17.07,17.07 0 0 0 17.07,17.07" fill="#04af4c" id="svg_2" transform="matrix(1, 0, 0, 1, 0, 0)"/>
  <path d="m0,358.4a17.07,17.07 0 0 0 17.07,17.07l56.3,0c4.97,51.49 11.84,86.42 12.29,88.68a17.07,17.07 0 0 0 16.74,13.72l221.87,0c5.85,0 11.29,-3.01 14.44,-7.96l102.04,-161.6c17.64,-25.72 18.84,-102.2 -11.08,-132.11a17.07,17.07 0 0 0 -24.13,24.13c16.96,16.98 15.72,76.06 6.69,89.22l-97.37,154.18l-198.16,0c-4.66,-27.85 -14.3,-94.84 -14.3,-170.66l0,-187.74a17.08,17.08 0 0 1 34.13,0a17.07,17.07 0 1 0 34.14,0l0,-17.06a17.08,17.08 0 0 1 34.13,0a17.07,17.07 0 1 0 34.13,0l0,-17.07a17.08,17.08 0 0 1 34.14,0l0,17.07a17.07,17.07 0 1 0 34.13,0a17.08,17.08 0 0 1 34.13,0l0,204.8a17.07,17.07 0 1 0 34.14,0l0,-204.8c0,-28.23 -22.98,-51.2 -51.2,-51.2c-9.12,0 -17.7,2.4 -25.13,6.6a51.2,51.2 0 0 0 -43.14,-23.67a51.2,51.2 0 0 0 -43.14,23.67a51.18,51.18 0 0 0 -68.27,17.07a50.93,50.93 0 0 0 -25.12,-6.61a51.08,51.08 0 0 0 -48.05,34.14l-54.35,0a17.07,17.07 0 1 0 0,34.13l51.2,0l0,170.67c0,24.04 0.94,47.02 2.33,68.26l-53.53,0a17.07,17.07 0 0 0 -17.07,17.07" fill="#04af4c" id="svg_3" transform="matrix(1, 0, 0, 1, 0, 0)"/>
 </g>
</svg>